<svg width="831" height="255" viewBox="0 0 831 255" fill="none" xmlns="http://www.w3.org/2000/svg">
<path d="M18.3285 117.311C17.8572 120.913 18.5711 125.024 18.9211 128.64C19.3037 132.621 19.845 136.583 20.6383 140.502C22.4862 149.62 25.8926 158.318 30.7969 166.218C34.7073 172.523 38.7484 178.64 41.4035 185.626C45.6872 196.895 45.8506 209.237 47.7824 221.141C49.7143 233.045 54.9966 246.769 64.4973 255C51.5342 250.53 39.4437 243.395 30.3023 234.226C16.7699 220.647 5.7107 204.058 1.61365 185.332C-1.82077 169.625 0.423738 153.087 6.48065 138.304C8.55717 133.232 11.0863 128.346 14.0121 123.713C15.37 121.557 16.8213 119.322 18.3285 117.311Z" fill="#EAF3F2"/>
<path d="M57.797 174.005C56.7004 175.964 55.5759 177.901 54.4233 179.814C45.7252 169.581 38.8377 157.08 33.98 144.588C30.247 134.966 27.8438 124.761 27.4565 114.425C27.1018 105.004 28.6464 95.6802 31.4089 86.6742C33.5881 79.572 36.9618 73.0065 40.6716 66.5716C44.9739 59.1102 49.5843 51.798 54.4513 44.6072C56.3691 41.7747 58.3803 39.0543 60.2469 36.3338C61.5301 34.4579 63.112 32.5401 64.6939 30.5195C60.2095 44.0612 60.3915 57.3836 63.7746 71.098C67.3164 85.4656 72.8833 99.4553 73.9846 114.336C75.5291 135.199 68.063 155.629 57.797 174.005Z" fill="#EAF3F2"/>
<path d="M119.571 140.821C117.658 150.531 112.324 158.413 105.987 165.809C94.7088 178.977 80.3738 190.648 72.8843 206.597C66.6734 219.817 65.5955 232.425 67.2287 246.942V246.956C58.204 231.436 54.4103 214.53 59.3566 197.269C65.3715 176.294 81.3817 159.019 85.9174 137.675C91.1157 113.196 78.7545 88.399 73.8036 64.904C70.4391 48.9265 72.357 29.0013 79.5945 13.2197C79.5945 13.2197 79.5992 13.2104 79.6085 13.1917C79.6132 13.1824 79.6178 13.1731 79.6225 13.1591C80.4018 11.4558 81.2464 9.80863 82.1563 8.21741C82.1656 8.20341 82.175 8.18941 82.1843 8.17542C83.6962 5.67426 85.8707 2.63181 88.7358 0C83.0102 15.0349 78.8479 31.4184 82.8609 46.9386C86.2347 59.9904 94.8394 70.7836 102.59 81.5022C114.881 98.5063 123.78 119.444 119.571 140.821Z" fill="#EAF3F2"/>
<path d="M133.481 199.428C132.627 200.646 131.713 201.808 130.742 202.918C124.442 210.118 115.866 215.186 107.406 219.824C94.7598 226.754 79.7341 234.178 73.8965 248.317C73.3786 229.255 79.7248 209.927 92.1093 195.424C100.131 186.036 110.453 178.756 118.012 168.994C122.52 163.166 125.945 156.432 127.746 149.274C129.174 143.595 129.151 137.926 128.88 132.195C128.88 132.195 128.861 131.771 128.824 131.057C128.763 129.951 128.661 128.154 128.521 126.176C129.118 127.128 129.697 128.136 130.252 129.176C130.257 129.176 130.257 129.176 130.257 129.176C134.204 136.53 137.125 145.476 137.643 147.09C137.653 147.114 137.662 147.137 137.667 147.16C137.685 147.221 137.699 147.268 137.709 147.3C137.718 147.333 137.723 147.347 137.723 147.347C139.795 154.519 141.293 161.887 141.526 169.367C141.862 179.913 139.538 190.781 133.481 199.423V199.428Z" fill="#EAF3F2"/>
<path d="M293.82 97.4778C293.82 101.696 293.076 105.605 291.588 109.203C290.224 112.677 288.178 115.779 285.449 118.508C282.845 121.238 279.683 123.471 275.963 125.208C272.242 126.821 268.15 127.814 263.686 128.186V129.861C268.646 129.985 273.048 130.854 276.893 132.467C280.861 133.956 284.209 136.065 286.937 138.794C289.666 141.524 291.712 144.75 293.076 148.472C294.564 152.194 295.308 156.227 295.308 160.569V193.139H276.335V160.197C276.335 153.621 274.35 148.472 270.382 144.75C266.414 140.904 260.957 138.981 254.013 138.981H211.601V193.139H193V62.8611H251.223C257.671 62.8611 263.5 63.7296 268.708 65.4667C273.916 67.0796 278.381 69.375 282.101 72.3528C285.821 75.3306 288.674 78.9907 290.658 83.3333C292.766 87.5518 293.82 92.2667 293.82 97.4778ZM248.99 121.858C256.803 121.858 263.066 120.059 267.778 116.461C272.49 112.863 274.846 107.962 274.846 101.758C274.846 95.4305 272.676 90.4676 268.336 86.8694C263.996 83.2713 257.919 81.4722 250.107 81.4722H211.601V122.044L248.99 121.858Z" fill="#EAF3F2"/>
<path d="M393.101 151.636H317.579C317.951 155.606 319.005 159.267 320.741 162.617C322.601 165.967 324.896 168.882 327.624 171.364C330.352 173.845 333.452 175.831 336.925 177.319C340.397 178.684 344.055 179.367 347.899 179.367C354.472 179.367 360.238 177.692 365.199 174.342C370.283 170.992 373.879 166.401 375.988 160.569L392.729 163.547C391.365 168.386 389.195 172.791 386.218 176.761C383.242 180.607 379.708 183.895 375.616 186.625C371.647 189.231 367.245 191.278 362.409 192.767C357.572 194.256 352.612 195 347.527 195C340.335 195 333.824 193.883 327.996 191.65C322.167 189.293 317.145 186.005 312.929 181.786C308.836 177.444 305.612 172.294 303.256 166.339C301.024 160.383 299.908 153.807 299.908 146.611C299.908 139.291 301.024 132.715 303.256 126.883C305.488 120.928 308.65 115.841 312.743 111.622C316.959 107.28 321.981 103.992 327.81 101.758C333.638 99.4009 340.087 98.2222 347.155 98.2222C354.1 98.2222 360.362 99.4009 365.943 101.758C371.647 104.116 376.484 107.466 380.452 111.808C384.42 116.151 387.521 121.362 389.753 127.442C391.985 133.521 393.101 140.283 393.101 147.728V151.636ZM374.872 138.794C374.003 131.35 371.089 125.456 366.129 121.114C361.168 116.771 355.03 114.6 347.713 114.6C339.653 114.6 333.018 116.833 327.81 121.3C322.601 125.643 319.377 131.474 318.137 138.794H374.872Z" fill="#EAF3F2"/>
<path d="M471.993 100.083H491.153L449.671 193.139H429.582L388.286 100.083H407.446L434.976 161.314C436.34 164.54 437.332 167.58 437.952 170.433C438.572 173.287 438.882 175.769 438.882 177.878H440.557C440.557 175.769 440.805 173.287 441.301 170.433C441.921 167.456 442.913 164.416 444.277 161.314L471.993 100.083Z" fill="#EAF3F2"/>
<path d="M496.582 128C496.582 117.95 498.132 108.831 501.232 100.642C504.332 92.3287 508.673 85.2565 514.253 79.425C519.834 73.5935 526.53 69.0648 534.343 65.8389C542.279 62.613 551.022 61 560.571 61C570.244 61 578.986 62.613 586.799 65.8389C594.736 68.9407 601.494 73.4074 607.075 79.2389C612.655 85.0704 616.933 92.1426 619.91 100.456C623.01 108.644 624.56 117.826 624.56 128C624.56 138.05 623.01 147.231 619.91 155.544C616.809 163.733 612.469 170.744 606.889 176.575C601.308 182.406 594.55 186.935 586.613 190.161C578.8 193.387 570.12 195 560.571 195C551.022 195 542.279 193.387 534.343 190.161C526.53 186.935 519.834 182.406 514.253 176.575C508.673 170.744 504.332 163.733 501.232 155.544C498.132 147.231 496.582 138.05 496.582 128ZM515.741 127.814C515.741 134.762 516.919 141.214 519.276 147.169C521.632 153.001 524.856 158.088 528.948 162.431C533.041 166.773 537.815 170.185 543.272 172.667C548.728 175.148 554.494 176.389 560.571 176.389C566.771 176.389 572.6 175.148 578.056 172.667C583.513 170.185 588.225 166.773 592.193 162.431C596.286 158.088 599.51 153.001 601.866 147.169C604.222 141.214 605.4 134.762 605.4 127.814C605.4 120.494 604.284 113.856 602.052 107.9C599.944 101.944 596.906 96.9194 592.937 92.825C589.093 88.6065 584.381 85.3806 578.8 83.1472C573.344 80.7898 567.267 79.6111 560.571 79.6111C553.874 79.6111 547.736 80.7898 542.155 83.1472C536.699 85.3806 531.987 88.6065 528.018 92.825C524.174 96.9194 521.136 101.944 518.904 107.9C516.795 113.856 515.741 120.494 515.741 127.814Z" fill="#EAF3F2"/>
<path d="M652.639 122.044C655.368 114.724 660.018 108.955 666.591 104.736C673.163 100.394 680.79 98.2222 689.47 98.2222C694.803 98.2222 699.639 99.2148 703.98 101.2C708.32 103.185 711.978 106.039 714.954 109.761C718.055 113.359 720.411 117.764 722.023 122.975C723.759 128.062 724.627 133.769 724.627 140.097V193.139H706.026V144.936C706.026 135.631 703.794 128.31 699.329 122.975C694.865 117.516 688.788 114.786 681.1 114.786C676.511 114.786 672.357 115.531 668.637 117.019C664.916 118.508 661.754 120.618 659.15 123.347C656.546 125.953 654.5 129.055 653.012 132.653C651.647 136.251 650.965 140.221 650.965 144.564V193.139H632.736V100.083H650.965V122.044H652.639Z" fill="#EAF3F2"/>
<path d="M831 158.522C829.76 164.106 827.652 169.193 824.675 173.783C821.823 178.25 818.289 182.096 814.073 185.322C809.856 188.424 805.02 190.844 799.563 192.581C794.107 194.194 788.217 195 781.892 195C774.203 195 767.197 193.821 760.872 191.464C754.672 189.106 749.34 185.756 744.875 181.414C740.411 176.947 736.939 171.674 734.458 165.594C732.102 159.515 730.924 152.753 730.924 145.308C730.924 137.864 732.102 131.102 734.458 125.022C736.939 118.943 740.411 113.731 744.875 109.389C749.34 104.922 754.672 101.51 760.872 99.1528C767.197 96.7954 774.203 95.6167 781.892 95.6167C788.341 95.6167 794.293 96.4852 799.75 98.2222C805.206 99.9593 810.042 102.441 814.259 105.667C818.475 108.769 822.009 112.553 824.862 117.019C827.714 121.486 829.76 126.511 831 132.094L813.143 135.072C811.158 128 807.5 122.541 802.168 118.694C796.835 114.848 790.263 112.925 782.45 112.925C772.157 112.925 764.035 115.903 758.082 121.858C752.254 127.69 749.34 135.382 749.34 144.936C749.34 149.651 750.146 153.994 751.758 157.964C753.494 161.934 755.85 165.408 758.826 168.386C761.802 171.24 765.275 173.473 769.243 175.086C773.335 176.699 777.8 177.506 782.636 177.506C790.077 177.506 796.463 175.582 801.796 171.736C807.252 167.89 811.034 162.493 813.143 155.544L831 158.522Z" fill="#EAF3F2"/>
</svg>
