<svg width="167" height="300" viewBox="0 0 167 300" fill="none" xmlns="http://www.w3.org/2000/svg">
<path d="M21.5629 138.012C21.0084 142.25 21.8484 147.087 22.2601 151.341C22.7103 156.024 23.3471 160.685 24.2804 165.297C26.4543 176.024 30.4619 186.257 36.2317 195.551C40.8321 202.968 45.5863 210.165 48.71 218.383C53.7497 231.641 53.9418 246.161 56.2146 260.166C58.4874 274.17 64.7018 290.316 75.8791 300C60.6284 294.741 46.4043 286.347 35.6498 275.559C19.7293 259.584 6.71847 240.068 1.89842 218.037C-2.14208 199.558 0.498516 180.103 7.62429 162.711C10.0673 156.743 13.0427 150.996 16.4848 145.544C18.0824 143.008 19.7897 140.378 21.5629 138.012Z" fill="#EAF3F2"/>
<path d="M67.996 204.711C66.7059 207.017 65.3829 209.295 64.0269 211.546C53.7939 199.507 45.6909 184.8 39.976 170.104C35.5842 158.784 32.7569 146.777 32.3013 134.617C31.8841 123.534 33.7012 112.565 36.9512 101.97C39.5149 93.6141 43.484 85.8899 47.8484 78.3195C52.91 69.5413 58.334 60.9388 64.0598 52.479C66.3162 49.1467 68.6823 45.9461 70.8782 42.7456C72.3879 40.5387 74.2489 38.2824 76.11 35.9053C70.8343 51.8367 71.0484 67.5101 75.0285 83.6446C79.1952 100.548 85.7446 117.006 87.0402 134.513C88.8573 159.058 80.0736 183.092 67.996 204.711Z" fill="#EAF3F2"/>
<path d="M140.671 165.671C138.42 177.096 132.145 186.368 124.69 195.069C111.421 210.561 94.5564 224.291 85.7453 243.056C78.4384 258.608 77.1702 273.442 79.0917 290.52V290.537C68.4744 272.278 64.0111 252.388 69.8303 232.081C76.9067 207.405 95.7422 187.082 101.078 161.971C107.194 133.172 92.6515 103.999 86.8268 76.3577C82.8686 57.5606 85.125 34.1191 93.6396 15.5526C93.6396 15.5526 93.6451 15.5416 93.6561 15.5197C93.6616 15.5087 93.6671 15.4977 93.6726 15.4812C94.5894 13.4775 95.583 11.5396 96.6535 9.66754C96.6645 9.65107 96.6755 9.6346 96.6865 9.61814C98.4652 6.6756 101.023 3.09625 104.394 0C97.6582 17.6881 92.7613 36.9628 97.4825 55.2219C101.452 70.5769 111.575 83.2748 120.693 95.8849C135.154 115.89 145.623 140.522 140.671 165.671Z" fill="#EAF3F2"/>
<path d="M157.036 234.621C156.032 236.054 154.956 237.421 153.814 238.727C146.403 247.198 136.312 253.16 126.359 258.617C111.482 266.769 93.8046 275.503 86.9369 292.138C86.3275 269.712 93.7937 246.973 108.364 229.911C117.801 218.865 129.944 210.301 138.838 198.816C144.141 191.96 148.17 184.038 150.289 175.616C151.969 168.935 151.942 162.265 151.623 155.524C151.623 155.524 151.601 155.024 151.557 154.184C151.486 152.883 151.365 150.77 151.201 148.442C151.903 149.562 152.584 150.748 153.237 151.972C153.243 151.972 153.243 151.972 153.243 151.972C157.887 160.624 161.324 171.148 161.933 173.047C161.944 173.075 161.955 173.102 161.961 173.13C161.983 173.201 161.999 173.256 162.01 173.294C162.021 173.333 162.027 173.349 162.027 173.349C164.464 181.787 166.226 190.455 166.501 199.256C166.896 211.662 164.162 224.448 157.036 234.615V234.621Z" fill="#EAF3F2"/>
</svg>
